<svg xmlns="http://www.w3.org/2000/svg" data-name="Layer 1" viewBox="0 0 95 118.75" x="0px" y="0px"><path d="M83.962,34.452l-3.539-2.043a2.1,2.1,0,0,0-2.12.093,4.007,4.007,0,0,0-1.435,1.48l-.612,1.061V19.3a4.853,4.853,0,0,0-4.848-4.847H61.856V11.932A3.449,3.449,0,0,0,58.41,8.487H51.663a8.578,8.578,0,0,0-17.016,0H27.9a3.448,3.448,0,0,0-3.445,3.445v2.517H14.9A4.852,4.852,0,0,0,10.055,19.3V89.152A4.853,4.853,0,0,0,14.9,94H71.408a4.854,4.854,0,0,0,4.848-4.848v-36.7h-.041l8.162-14.137C85.272,36.767,85.093,35.1,83.962,34.452Zm-25.918,37.6,2.779,1.6-3.3,2.5Zm4.346-.008-3.733-2.155,14.781-25.6,3.733,2.155ZM74.528,42.4l1.428-2.473,3.733,2.155L78.261,44.55Zm-.452-23.1V38.747h.041L70.793,44.5V21a1.09,1.09,0,0,0-1.089-1.09H63.546V16.628h7.862A2.671,2.671,0,0,1,74.076,19.3ZM27.9,10.667h7.768a1.09,1.09,0,0,0,1.09-1.09,6.4,6.4,0,1,1,12.794,0,1.09,1.09,0,0,0,1.09,1.09H58.41a1.267,1.267,0,0,1,1.266,1.265v2.517H55.35a1.09,1.09,0,1,0,0,2.179h6.017v5.789A1.268,1.268,0,0,1,60.1,23.683H49.44a8.575,8.575,0,0,0-12.569,0H26.209a1.267,1.267,0,0,1-1.265-1.266V16.628H46a1.09,1.09,0,1,0,0-2.179H26.634V11.932A1.267,1.267,0,0,1,27.9,10.667ZM26.209,25.862H37.365a1.09,1.09,0,0,0,.843-.4,6.4,6.4,0,0,1,9.9,0,1.09,1.09,0,0,0,.842.4H60.1a3.448,3.448,0,0,0,3.445-3.445V22.09h5.068V48.208h.041l-5.2,9.008H54.847a1.09,1.09,0,0,0,0,2.18H62.2l-3.217,5.572H22.148a1.09,1.09,0,1,0,0,2.18H57.72l-1.5,2.591a1.072,1.072,0,0,0-.137.408l-.325,2.573H47.55a1.09,1.09,0,1,0,0,2.179h7.938l-.447,3.55a1.089,1.089,0,0,0,1.74,1l6-4.554h1.377a1.09,1.09,0,0,0,.324-2.13l4.128-7.15V86.358H17.7V22.09h5.067v.327A3.448,3.448,0,0,0,26.209,25.862Zm47.867,63.29a2.671,2.671,0,0,1-2.668,2.668H14.9a2.671,2.671,0,0,1-2.669-2.668V19.3A2.671,2.671,0,0,1,14.9,16.628h7.861v3.283H16.607A1.09,1.09,0,0,0,15.517,21V87.448a1.09,1.09,0,0,0,1.09,1.09H69.7a1.09,1.09,0,0,0,1.089-1.09V61.915h-.041l3.324-5.757Zm8.413-51.925-1.71,2.962-3.733-2.155,1.71-2.962a1.7,1.7,0,0,1,.691-.71l3.311,1.911A1.708,1.708,0,0,1,82.489,37.227ZM43.155,13.209a3.632,3.632,0,1,0-3.632-3.632A3.636,3.636,0,0,0,43.155,13.209Zm0-5.084A1.452,1.452,0,1,1,41.7,9.577,1.453,1.453,0,0,1,43.155,8.125Zm6.35,7.413a1.089,1.089,0,0,1,1.09-1.089h.926a1.09,1.09,0,1,1,0,2.179H50.6A1.09,1.09,0,0,1,49.505,15.538ZM33.053,49.464H64.162a1.09,1.09,0,1,1,0,2.18H33.053a1.09,1.09,0,0,1,0-2.18Zm-11.995,1.09a1.09,1.09,0,0,1,1.09-1.09H29.5a1.09,1.09,0,0,1,0,2.18H22.148A1.09,1.09,0,0,1,21.058,50.554Zm31.326,7.752a1.09,1.09,0,0,1-1.09,1.09H22.148a1.09,1.09,0,0,1,0-2.18H51.294A1.09,1.09,0,0,1,52.384,58.306ZM21.058,73.81a1.09,1.09,0,0,1,1.09-1.09H44A1.09,1.09,0,1,1,44,74.9H22.148A1.09,1.09,0,0,1,21.058,73.81ZM37.716,36.2a1.09,1.09,0,0,1,1.09-1.09H51.728a1.09,1.09,0,0,1,0,2.18H38.806A1.09,1.09,0,0,1,37.716,36.2Zm0,5.78a1.09,1.09,0,0,1,1.09-1.09H58.189a1.09,1.09,0,0,1,0,2.18H38.806A1.09,1.09,0,0,1,37.716,41.975Zm-9-4.967a3.7,3.7,0,1,0-3.7-3.7A3.707,3.707,0,0,0,28.718,37.008Zm0-5.225A1.523,1.523,0,1,1,27.2,33.306,1.524,1.524,0,0,1,28.718,31.783ZM21.078,44.1a1.089,1.089,0,0,0,1.07,1.3H35.287a1.089,1.089,0,0,0,1.07-1.3,7.783,7.783,0,0,0-15.279,0ZM33.8,43.22H23.639a5.6,5.6,0,0,1,10.158,0Z"/><text x="0" y="110" fill="#000000" font-size="5px" font-weight="bold" font-family="'Helvetica Neue', Helvetica, Arial-Unicode, Arial, Sans-serif">Created by Sunardi</text><text x="0" y="115" fill="#000000" font-size="5px" font-weight="bold" font-family="'Helvetica Neue', Helvetica, Arial-Unicode, Arial, Sans-serif">from the Noun Project</text></svg>